<svg width="7" height="7" viewBox="0 0 7 7" fill="none" xmlns="http://www.w3.org/2000/svg">
<path fill-rule="evenodd" clip-rule="evenodd" d="M6.48979 1.91414C6.88031 1.52361 6.88031 0.890449 6.48979 0.499924C6.09926 0.1094 5.4661 0.1094 5.07557 0.499924L3.7827 1.7928L2.48982 0.499925C2.0993 0.1094 1.46613 0.1094 1.07561 0.499924C0.685084 0.890449 0.685084 1.52361 1.07561 1.91414L2.36848 3.20701L1.07561 4.49989C0.685084 4.89042 0.685084 5.52358 1.07561 5.9141C1.46613 6.30463 2.0993 6.30463 2.48982 5.9141L3.7827 4.62123L5.07557 5.9141C5.4661 6.30463 6.09926 6.30463 6.48979 5.91411C6.88031 5.52358 6.88031 4.89042 6.48979 4.49989L5.19691 3.20702L6.48979 1.91414Z" fill="#41167F"/>
</svg>
